<svg version="1.1" baseProfile="full" xmlns="http://www.w3.org/2000/svg"
 width="100%" height="100%" viewBox="0 0 10240 10240" preserveAspectRatio="xMidYMid meet">
<g id="svg" fill="black" stroke="none" stroke-linecap="round">
<path d="M0 5120l0 5120 5120 0 5120 0 0 -5120 0 -5120 -5120 0 -5120 0 0 5120 z" fill="none"/>
<path d="M3082 5155l1 9 31 -150 c14 -82 47 -212 71 -289 25 -77 75 -199 110 -270 
36 -72 103 -186 150 -254 47 -67 133 -174 191 -237 65 -70 157 -155 238 -218 
78 -61 187 -134 267 -179 74 -41 182 -93 240 -116 58 -22 154 -54 212 -71 
59 -16 175 -39 257 -50 83 -11 204 -20 270 -20 66 0 188 9 271 20 106 14 194 33 300 65 
89 27 209 73 298 115 106 50 191 100 291 170 81 57 186 143 247 202 58 57 144 150 191 208 
47 57 122 168 167 245 53 92 101 192 138 290 31 83 68 202 82 265 14 63 31 167 39 230 
l6 50 4 0 5 0 1 -40 c1 -58 1 -143 0 -190 -1 -47 -12 -148 -26 -225 -15 -83 -44 -197 -72 -280 
-26 -77 -76 -196 -111 -265 -35 -69 -105 -183 -155 -255 -64 -92 -128 -167 -223 -262 
-95 -95 -171 -160 -267 -227 -76 -53 -193 -123 -272 -162 -77 -38 -199 -88 -271 -111 
-73 -24 -189 -54 -258 -68 -98 -20 -167 -26 -320 -30 -139 -4 -231 -1 -320 10 
-69 8 -192 33 -274 54 -97 25 -201 62 -300 105 -88 38 -204 99 -277 146 
-80 51 -175 124 -263 202 -93 84 -167 161 -231 242 -51 65 -130 183 -176 261 
-58 102 -99 190 -143 306 -38 103 -70 212 -86 292 -14 71 -29 184 -34 250 
-4 67 -4 160 -1 207 1 9 2 18 2 25 z" fill="rgb(179, 198, 254)"/>
<path d="M4850 4128c4 0 8 0 12 0 l193 2 c52 0 112 0 175 0 343 0 359 -1 342 -17 -9 -10 -93 -73 -185 -141
l-167 -123 0 -53 c0 -53 -1 -55 -47 -89 l-47 -35 -46 32 c-25 17 -48 38 -52 46
-4 8 -7 35 -8 60 l-1 45 -155 115 c-86 63 -167 123 -182 132 -14 10 -23 20 -20 23
3 4 87 5 188 3 z" fill="rgb(179, 198, 254)"/>
<path d="M4850 4128l10 2 c4 0 82 0 195 0 l-193 -2 c-4 0 -8 0 -12 0 z" fill="rgb(199, 98, 107)"/>
<path d="M4756 4195l1 115 c1 50 1 99 0 125 l2 13 c1 6 1 14 1 17 0 2 84 4 205 6 40 0 84 1 130 1
8 0 15 0 23 0 l358 2 6 -15 c1 -3 2 -15 3 -34 l-4 -67 c-3 -38 -2 -71 2 -74
l3 -3 -1 -86 -365 0 -364 0 z" fill="rgb(179, 198, 254)"/>
<path d="M4756 4195l-2 125 3 125 c0 -3 0 -6 0 -10 1 -26 1 -75 0 -125 l-1 -115 z" fill="rgb(226, 184, 187)"/>
<path d="M5485 4425c1 -26 2 -65 1 -105 l0 -39 -3 3 c-4 3 -5 36 -2 74 l4 67 z" fill="rgb(211, 126, 134)"/>
<path d="M4757 4435c0 4 0 7 0 10 0 2 0 4 0 5 l-2 25 105 0 105 -4 c-121 -2 -205 -4 -205 -6
0 -3 0 -11 -1 -17 l-2 -13 z" fill="rgb(225, 162, 166)"/>
<path d="M5095 4472l74 6 c41 2 127 1 191 -1 l116 -3 -358 -2 c-8 0 -15 0 -23 0 z" fill="rgb(218, 141, 149)"/>
<path d="M4595 4537l160 -1 160 -1 c-67 0 -121 0 -155 0 -70 0 -134 1 -165 2 z" fill="rgb(227, 200, 203)"/>
<path d="M4595 4537c-9 0 -15 0 -17 1 -14 1 -18 12 -18 45 0 39 2 43 33 52 19 6 44 26 58 45
23 33 24 42 22 163 l-3 127 25 -5 c14 -3 54 -17 90 -31 44 -17 85 -44 127 -82
38 -36 71 -77 87 -112 l26 -55 52 -3 51 -4 -7 34 c-5 18 -20 57 -35 85 -14 29 -51 78 -81 108
-31 30 -80 69 -111 86 -30 17 -94 42 -141 54 l-87 23 -17 164 c-10 89 -27 213 -38 273
-12 61 -32 153 -46 205 -13 52 -23 96 -21 97 1 1 89 30 194 63 131 41 264 92 420 163
131 59 310 130 422 167 110 37 239 72 297 82 25 4 56 8 86 12 l4 -11 5 -14
c-27 -12 -56 -29 -78 -47 -46 -35 -64 -59 -108 -144 -37 -71 -65 -144 -89 -234
-20 -72 -47 -199 -61 -281 -14 -83 -32 -242 -41 -353 -8 -112 -15 -269 -15 -349
0 -129 2 -150 20 -179 11 -18 36 -40 55 -48 32 -13 35 -18 35 -54 l0 -40 -382 -2
c-133 -1 -280 -2 -393 -3 l-160 1 -160 1 z" fill="rgb(179, 198, 254)"/>
<path d="M3082 5155c3 30 4 43 3 30 l-2 -21 -1 -9 z" fill="rgb(217, 118, 120)"/>
<path d="M7150 5170l8 65 1 -65 -5 0 -4 0 z" fill="rgb(211, 126, 134)"/>
<path d="M3785 5855c-69 8 -172 28 -229 44 -57 16 -136 43 -175 60 -39 17 -83 39 -98 49
l-27 18 48 89 c26 50 83 140 127 202 44 61 135 170 204 241 81 84 170 164 255 227
71 53 186 128 255 166 78 43 184 90 281 125 98 35 211 66 305 85 118 23 186 30 324 34
137 4 208 1 330 -14 112 -15 196 -32 304 -65 82 -24 207 -71 278 -103 70 -32 193 -100 273 -152
98 -63 182 -129 264 -204 65 -60 157 -155 204 -210 47 -56 121 -157 164 -226
43 -68 78 -127 78 -130 0 -4 -54 33 -120 81 -93 68 -147 99 -240 138 -77 32 -157 57 -225 70
-76 14 -147 20 -255 20 -101 0 -189 -6 -270 -20 -67 -10 -188 -39 -270 -64
-98 -29 -240 -85 -410 -160 -143 -64 -332 -141 -420 -171 -88 -30 -234 -71 -324 -90
-122 -26 -209 -37 -335 -45 -138 -8 -195 -7 -296 5 z" fill="rgb(179, 198, 254)"/>
<path d="M5963 6294c31 3 62 6 87 7 l0 -3 0 -5 c-14 -4 -28 -7 -41 -11 -12 -3 -24 -8 -37 -13 
l-5 14 -4 11 z" fill="rgb(199, 98, 107)"/>
<path d="M6050 6301c6 1 12 1 17 1 48 2 69 2 46 1 -15 -1 -39 -5 -63 -10 l0 5 0 3 
z" fill="rgb(214, 166, 173)"/>
</g>
</svg>
